<?xml version="1.0" standalone="no"?>
<!DOCTYPE svg PUBLIC "-//W3C//DTD SVG 20010904//EN"
 "http://www.w3.org/TR/2001/REC-SVG-20010904/DTD/svg10.dtd">
<svg version="1.0" xmlns="http://www.w3.org/2000/svg"
 width="500.000000pt" height="500.000000pt" viewBox="0 0 500.000000 500.000000"
 preserveAspectRatio="xMidYMid meet">

<g transform="translate(0.000000,500.000000) scale(0.100000,-0.100000)"
fill="#000000" stroke="none">
<path d="M110 3395 l0 -1345 113 0 112 0 -3 57 c-2 32 -39 578 -82 1213 -48
714 -74 1164 -69 1178 5 12 15 22 22 22 33 0 19 25 662 -1185 164 -308 310
-582 325 -608 l26 -48 74 158 c72 155 128 275 497 1063 291 620 304 643 336
611 9 -9 13 -331 18 -1309 6 -1312 8 -1374 45 -1556 65 -321 246 -616 492
-801 260 -195 612 -295 925 -263 141 15 215 13 259 -6 20 -9 79 -53 130 -98
223 -196 417 -276 647 -266 118 5 185 34 255 108 58 62 76 103 76 176 0 68
-23 120 -61 139 -44 23 -59 19 -59 -16 0 -112 -134 -217 -305 -238 -181 -22
-386 40 -516 157 -80 72 -67 109 61 172 385 191 635 532 727 990 24 120 23
398 -1 540 -104 602 -526 1026 -1111 1116 -120 19 -393 13 -495 -10 -266 -61
-483 -177 -660 -355 -52 -53 -113 -123 -135 -155 l-40 -58 -3 981 -2 982 -127
-3 -126 -3 -318 -680 c-466 -996 -470 -1005 -496 -1022 -20 -14 -26 -14 -46
-1 -13 10 -198 345 -472 859 l-450 844 -113 3 -112 3 0 -1346z m3582 -94 c209
-42 379 -133 534 -286 238 -235 364 -530 393 -920 40 -551 -176 -1050 -564
-1301 -79 -51 -96 -58 -140 -58 -32 0 -62 7 -83 19 -36 22 -142 155 -242 305
-283 426 -466 571 -704 558 -142 -8 -247 -80 -303 -206 -41 -95 -46 -102 -64
-102 -21 0 -49 57 -82 170 -45 152 -55 212 -67 395 -45 726 337 1310 935 1429
105 21 276 19 387 -3z m-639 -1767 c144 -57 237 -152 472 -479 87 -121 173
-240 191 -264 52 -68 43 -119 -23 -143 -27 -9 -91 -13 -213 -12 -161 0 -182 3
-264 28 -187 57 -327 140 -460 274 -130 130 -160 191 -159 315 1 115 72 234
170 286 65 34 194 32 286 -5z"/>
</g>
</svg>
